<svg xmlns="http://www.w3.org/2000/svg" viewBox="0 0 512 512"><defs><style>      .cls-1 {        fill: #fff;      }    </style></defs><g><g id="Layer_1"><g id="Group_3094"><path id="Path_2989" class="cls-1" d="M486,187.7h-.7l-70.1,2c-2.8.1-5.5-1.1-7.2-3.2l-21.9-25.9c7-12.3,4-27.9-7.1-36.7l-38.5-30.9c-.1,0-.2-.2-.4-.3-3.8-2.6-8.3-4.3-12.9-4.8l-101.3-12.1c-14.2-1.7-28.5,3-38.9,13l-51.5,49.2c-10.3,9.9-10.7,26.3-.8,36.7,9.9,10.3,26.3,10.7,36.7.8l47.6-45.5c1.6-1.6,3.9-2.3,6.2-2.1l46.1,5.2-51.4,75.1c-16.3,23.8-16.1,55.3.4,79l-27.1,43.2-76.6-15.1c-21.1-4.2-41.6,9.6-45.8,30.7-.6,2.9-.8,5.9-.7,8.8.3,8.6,6.6,15.8,15,17.3l118.3,20.9c2,.4,4,.5,6.1.5,11.8,0,22.8-6.1,29-16.1l30.9-49.2,54.6,41c.7.5,1,1.4.9,2.2l-12.8,72.4c-4.1,22.9,11.2,44.7,34.1,48.8h0c8.9,1.6,17.5-4.4,19-13.3l20.6-115.9c1.9-10.8-1.6-21.9-9.5-29.5l-66.5-70.2,44.9-60.1,24.2,28.5c5.4,6.4,13.4,10.1,21.7,10.1h.9l85.6-2.5c8.3-.3,16-4.5,20.7-11.3,3.1-4.5,4.7-10,4.5-15.5-.5-14-11.9-25.1-25.9-25.1M228.1,371c-4.8,7.7-13.9,11.8-22.9,10.2l-118.3-20.9c-2.9-.5-5.1-3-5.2-6-.5-14.9,11.2-27.5,26.2-27.9,2.1,0,4.1,0,6.1.5l80.7,15.9c2.4.5,4.9-.6,6.2-2.7l27.3-43.4c2.9,2.9,6.1,5.5,9.5,7.8l22,16.5-31.5,50h-.1ZM297.4,268.1l70,73.9.2.2c5.1,4.9,7.4,12.1,6.2,19l-20.6,116c-.4,2.5-2.8,4.1-5.3,3.7-16.4-2.9-27.4-18.5-24.5-35h0l12.8-72.4c.9-5.3-1.2-10.7-5.6-13.9l-85.9-64.6h-.1v-.2c-26.3-18-33-53.7-15.1-80l57-83.3s0-.1.1-.2c.1-.2.2-.4.3-.6,0-.2.1-.3.2-.5s.1-.4.2-.6c0-.2,0-.4.1-.6v-1.7c0-.2,0-.4-.1-.6s-.1-.4-.2-.6-.1-.3-.2-.5c-.2-.4-.3-.7-.6-1-.1-.2-.2-.3-.4-.5s-.3-.3-.4-.4c-.2,0-.3-.3-.5-.4l-.2-.2h-.2c-.2-.2-.4-.3-.6-.4-.2,0-.3-.2-.5-.2s-.3,0-.5-.2-.4,0-.6,0h-.2l-55.9-6.4c-5.8-.6-11.5,1.3-15.7,5.3l-47.6,45.5c-5.6,5.4-14.5,5.2-19.9-.4s-5.2-14.5.4-19.9l51.5-49.2c7.8-7.5,18.5-11.1,29.2-9.8l101.3,12.1c2.7.3,5.2,1.3,7.4,2.7l38.3,30.8c7.2,5.7,8.5,16.2,3,23.6l-77.4,103.7c-1.7,2.3-1.5,5.5.5,7.6M497.6,221.6c-2.5,3.7-6.7,6-11.2,6.1l-85.6,2.5c-5.1.2-9.9-2-13.2-5.9l-25.9-30.6,17.3-23.1,20,23.6c4.1,4.9,10.2,7.6,16.6,7.4l70.1-2c7.7-.2,14.2,5.9,14.4,13.6.1,3-.8,5.9-2.4,8.4"></path><path id="Path_2990" class="cls-1" d="M386,116.4c26.7,4.5,52-13.4,56.5-40.1,4.5-26.7-13.4-52-40.1-56.5s-52,13.4-56.5,40.1h0c-4.5,26.7,13.5,52,40.1,56.5M357.5,61.8c3.4-20.2,22.6-33.8,42.8-30.3,20.2,3.4,33.8,22.6,30.3,42.8-3.4,20.2-22.6,33.8-42.8,30.4-20.2-3.5-33.8-22.6-30.4-42.8"></path><path id="Path_2991" class="cls-1" d="M10.8,204.7h25.1c3.3-.2,5.7-3.1,5.5-6.4-.2-2.9-2.6-5.3-5.5-5.5H10.8c-3.3.2-5.7,3.1-5.5,6.4.2,2.9,2.6,5.3,5.5,5.5"></path><path id="Path_2992" class="cls-1" d="M66.8,204.7h55.9c3.3-.2,5.7-3.1,5.5-6.4-.2-2.9-2.6-5.3-5.5-5.5h-55.9c-3.3.2-5.7,3.1-5.5,6.4.2,2.9,2.6,5.3,5.5,5.5"></path><path id="Path_2993" class="cls-1" d="M29.9,236.1c0,3.3,2.7,5.9,5.9,5.9h135.2c3.3-.2,5.7-3.1,5.5-6.4-.2-2.9-2.6-5.3-5.5-5.5H35.8c-3.3,0-5.9,2.7-5.9,5.9h0"></path><path id="Path_2994" class="cls-1" d="M72.7,273.5c0-3.3-2.7-5.9-5.9-5.9H5c-3.3.2-5.7,3.1-5.5,6.4.2,2.9,2.6,5.3,5.5,5.5h61.8c3.3,0,5.9-2.7,5.9-5.9h0"></path></g></g></g></svg>