<svg xmlns="http://www.w3.org/2000/svg" viewBox="0 0 512 512"><defs><style>      .cls-1 {        fill: #fff;      }    </style></defs><g><g id="Layer_1"><g id="Group_3096"><path id="Path_2973" class="cls-1" d="M501.6,243.9h-174.7c2-19.2,18.3-33.6,37.6-33.3,1.7,0,3.3-.7,4.5-1.9s1.8-2.9,1.6-4.6c-1.6-20.5,13.7-38.4,34.2-40,5.2-.4,10.5.3,15.4,2.1,3.1,1.1,6.5-.5,7.6-3.5,1.3-3.3,3-6.5,5.1-9.3,12.5-16.3,35.9-19.5,52.2-7,16.2,12.4,19.4,35.6,7.2,51.9-3.5,4.6-8,8.3-13.1,10.8-3,1.5-4.2,5-2.7,8,.1.3.3.5.5.8,2,2.8,3.5,5.9,4.6,9.2,1.2,3.1,4.7,4.6,7.8,3.4,2.9-1.1,4.5-4.3,3.6-7.3-.8-2.3-1.7-4.4-2.8-6.6,4.5-3,8.5-6.8,11.8-11.1,16.4-21.7,12.1-52.6-9.6-69-21.7-16.4-52.6-12.1-69,9.6-1.7,2.3-3.2,4.7-4.5,7.2-26.5-6.2-52.9,10.3-59.1,36.7-.7,2.9-1.1,5.9-1.2,8.8-13.4,1.5-25.6,8.4-33.8,19.2-5.7,7.5-9.1,16.5-9.8,25.8H4.7c-3.3,0-6,2.7-6,6h0v24.9c.1,96.5,78.3,174.7,174.8,174.8h159.2c96.5-.1,174.7-78.3,174.9-174.9v-24.9c0-3.3-2.7-6-6-6h0M495.6,274.8c0,89.9-72.9,162.8-162.9,162.9h-159.2c-89.9-.1-162.8-73-162.9-162.9v-18.9h484.9v18.9h.1Z"></path><path id="Path_2974" class="cls-1" d="M355.1,454.4c-3.3,0-6,2.7-6,6h0v23.2c0,3.4-2.8,6.2-6.2,6.2h-179.5c-3.4,0-6.2-2.8-6.2-6.2v-23.2c-.1-3.3-2.9-5.9-6.2-5.8-3.1.1-5.7,2.6-5.8,5.8v23.2c0,10.1,8.2,18.2,18.2,18.2h179.5c10.1,0,18.2-8.2,18.2-18.2v-23.2c0-3.3-2.7-6-6-6h0"></path><path id="Path_2975" class="cls-1" d="M15.4,239.3c3.3,0,6-2.7,6-6s-.2-1.8-.6-2.6c-5.3-11.5-7.8-24.1-7.1-36.8.4-16,5.6-31.5,14.8-44.6,15.6,5.3,29.6,14.2,41,26,13.2,12.4,21.9,28.9,24.4,46.8.5,3.3,3.5,5.6,6.8,5.1,3.1-.4,5.4-3.2,5.1-6.4-2.8-20.6-12.5-39.6-27.7-53.8-13.9-14.3-31.2-24.8-50.3-30.5-2.4-.7-4.9.1-6.5,2.1-12.3,15.8-19.2,35.1-19.8,55.1-.7,14.6,2.2,29.1,8.4,42.3,1,2,3.1,3.3,5.4,3.3"></path><path id="Path_2976" class="cls-1" d="M50.6,205.1c-.6-3.3-3.8-5.4-7-4.7-3.1.6-5.2,3.5-4.8,6.6,0,.3,0,.8,0,1.3.9,9.4,3.2,18.7,7,27.4,1.4,3,5,4.3,8,2.9,2.8-1.3,4.2-4.6,3-7.6-3.2-7.6-5.3-15.6-6.1-23.8,0-.8-.2-1.5-.2-2"></path><path id="Path_2977" class="cls-1" d="M432.3,201l-17.2,22.8c-1.9,2.7-1.2,6.5,1.5,8.4,2.6,1.8,6.1,1.3,8.1-1.1l17.2-22.8c1.9-2.7,1.2-6.5-1.5-8.4-2.6-1.8-6.1-1.3-8.1,1.1"></path><path id="Path_2978" class="cls-1" d="M83.3,166.8c3,1.3,6.6-.1,7.9-3.2h0c10.7-25.1,26.4-40.7,41.1-40.7,26.4,0,51.3,49.3,51.3,87.5s-.3,7.9-.9,11.8c-.5,3.3,1.7,6.3,5,6.9h.9c3,0,5.5-2.1,5.9-5.1.7-4.5,1-9.1,1-13.6,0-40.1-26.6-99.5-63.3-99.5s-39.3,18-52.1,48.1c-1.3,3,0,6.6,3.2,7.9"></path><path id="Path_2979" class="cls-1" d="M132.3,175.1c-13.8,0-25,11.2-25,25s11.2,25,25,25,25-11.2,25-25-11.2-25-25-25M132.3,213.2c-7.2,0-13-5.8-13-13s5.8-13,13-13,13,5.8,13,13-5.8,13-13,13"></path><path id="Path_2980" class="cls-1" d="M140.4,103.4c3,1.5,6.6.3,8-2.7,6-11.7,13.5-22.6,22.4-32.3,12.5-14.5,27.4-26.8,44.2-36.1,5.1-1.8,10.6-2.4,15.9-1.8,2.1,3.1,3.9,6.3,5.4,9.7-9.9,15.9-18.2,32.8-24.7,50.5-9.1,24.9-17.7,48.4-14.5,78,.2,2.1.4,4.2.6,6.4,1.7,18.3,3.8,41.1,24.5,60.2,2.4,2.3,6.2,2.3,8.5,0,2.3-2.4,2.3-6.2,0-8.5,0,0-.2-.2-.3-.2-17.3-16-19.1-35.4-20.7-52.5-.2-2.2-.4-4.4-.6-6.6-2.9-26.9,4.9-48.1,13.8-72.6,6.5-17.6,14.8-34.5,24.9-50.4.8-1.2,1.1-2.6.9-4.1-2-6.9-5.2-13.4-9.6-19.1-.9-1.3-2.4-2.2-4-2.5-8.5-1.3-17.2-.4-25.3,2.6-18.2,10-34.5,23.2-48,39-9.5,10.5-17.6,22.2-24.1,34.9-1.5,3-.3,6.6,2.7,8"></path><path id="Path_2981" class="cls-1" d="M255.5,229.1h0c3.3,0,5.9-2.6,6-5.9l1.6-98.1,28.4,3.2c3.3.3,6.2-2.2,6.5-5.5.3-3.2-2-6-5.1-6.4l-29.6-3.3.2-11.8c.3-16.5,13.9-29.6,30.3-29.4,1,0,1.9,0,2.8.2l33.4,3.8c16.4,1.8,28.2,16.6,26.3,33-.1,1-.3,1.9-.5,2.8l-11,51.9c-.6,3.3,1.6,6.4,4.9,6.9,3.1.5,6.1-1.4,6.8-4.5l11-51.9c4.8-22.6-9.6-44.8-32.2-49.6-1.3-.3-2.7-.5-4-.7l-33.4-3.8c-22.9-2.6-43.7,13.9-46.3,36.8-.2,1.4-.2,2.7-.3,4.1l-2,121.9c0,3.3,2.6,6,5.9,6.1h0"></path><path id="Path_2982" class="cls-1" d="M264.7,60.9c1.6,2.9,5.2,4,8.1,2.5,2.8-1.5,4-4.9,2.6-7.8l-5.4-10.9c-2.2-4.5-.3-9.9,4.2-12,2.3-1.1,5-1.2,7.3-.2l3.1,1.3c6.7,2.8,14.4,1.9,20.4-2.3l10.8-7.8c4.1-2.9,9.7-1.9,12.6,2.1h0c0,.1,3.7,5.6,3.7,5.6,4.7,6.9,13.1,10.4,21.4,8.8,4.9-.9,9.6,2.3,10.5,7.2.4,2.3,0,4.7-1.3,6.7l-3.9,5.8c-1.7,2.8-.9,6.5,1.9,8.3,2.7,1.7,6.2,1,8-1.6l3.9-5.8c6.5-9.6,3.9-22.7-5.7-29.1-4.6-3.1-10.3-4.2-15.7-3.2-3.5.7-7.1-.8-9.2-3.8l-3.7-5.5c-6.5-9.6-19.6-12-29.1-5.5-.1,0-.3.2-.4.3l-10.8,7.8c-2.5,1.8-5.8,2.2-8.7,1l-3.1-1.3c-10.7-4.5-23,.5-27.5,11.2-2.4,5.6-2.2,11.9.5,17.4l5.4,10.9h.1Z"></path></g></g></g></svg>